<svg xmlns="http://www.w3.org/2000/svg" version="1.1" xmlns:xlink="http://www.w3.org/1999/xlink" width="512" height="512" x="0" y="0" viewBox="0 0 60 60" style="enable-background:new 0 0 512 512" xml:space="preserve" class=""><g><g fill="none" fill-rule="evenodd"><path fill="#f5f5f5" d="M49 16.74v16.61A12.994 12.994 0 0 0 36.63 55H4a3 3 0 0 1-3-3V6a3 3 0 0 1 3-3h42a3 3 0 0 1 2.93 2.34l-2 1.99-12 12-1.85 5.54a1.629 1.629 0 0 0 2.05 2.05l5.54-1.85z" opacity="1" data-original="#f5f5f5"></path><path fill="#cfd8dc" d="m45.93 5.34-2 1.99-12 12-1.85 5.54a1.629 1.629 0 0 0 2.05 2.05l1.317-.44a1.6 1.6 0 0 1-.367-1.61l1.85-5.54 12-12 2-1.99A3 3 0 0 0 46 3h-3a3 3 0 0 1 2.93 2.34zM44.528 33.089A13.009 13.009 0 0 0 30 46a12.905 12.905 0 0 0 3.63 9h3a12.987 12.987 0 0 1 7.9-21.911zM46 19.74V33a12.9 12.9 0 0 1 3 .35V16.74z" opacity="1" data-original="#cfd8dc"></path><path fill="#ffdc00" d="M34.925 19.332 46.923 7.334l5.74 5.74-11.999 11.998z" opacity="1" data-original="#ffdc00"></path><path fill="#ffe0b2" d="m40.67 25.07-5.54 1.85a1.629 1.629 0 0 1-2.05-2.05l1.85-5.54z" opacity="1" data-original="#ffe0b2"></path><path fill="#9e9e9e" d="m55.54 10.2-2.87 2.87-5.74-5.74 2-1.99.87-.88z" opacity="1" data-original="#9e9e9e"></path><path fill="#ef314c" d="m58.4 7.33-2.86 2.87-5.74-5.74 2.87-2.86a2.016 2.016 0 0 1 2.87 0l2.86 2.86a2.016 2.016 0 0 1 0 2.87z" opacity="1" data-original="#ef314c"></path><path fill="#bb193b" d="M58.4 4.46 55.54 1.6a2.016 2.016 0 0 0-2.87 0l-.065.065 2.8 2.8a2.016 2.016 0 0 1 0 2.87L54.037 8.7l1.5 1.5L58.4 7.33a2.016 2.016 0 0 0 0-2.87z" opacity="1" data-original="#bb193b"></path><circle cx="11" cy="13" r="5" fill="#02a9f4" opacity="1" data-original="#02a9f4"></circle><path fill="#0377bc" d="M11 8a4.966 4.966 0 0 0-1.5.254 4.968 4.968 0 0 1 0 9.492A4.99 4.99 0 1 0 11 8z" opacity="1" data-original="#0377bc"></path><circle cx="11" cy="29" r="5" fill="#02a9f4" opacity="1" data-original="#02a9f4"></circle><path fill="#0377bc" d="M11 24a4.966 4.966 0 0 0-1.5.254 4.968 4.968 0 0 1 0 9.492A4.99 4.99 0 1 0 11 24z" opacity="1" data-original="#0377bc"></path><circle cx="11" cy="45" r="5" fill="#02a9f4" opacity="1" data-original="#02a9f4"></circle><path fill="#0377bc" d="M11 40a4.966 4.966 0 0 0-1.5.254 4.968 4.968 0 0 1 0 9.492A4.99 4.99 0 1 0 11 40z" opacity="1" data-original="#0377bc"></path><path fill="#a4c400" d="M59 46a13 13 0 1 1-26-.002A13 13 0 0 1 59 46z" opacity="1" data-original="#a4c400"></path><path fill="#90ac00" d="M49 33.35a12.754 12.754 0 0 0-4.472-.261 13 13 0 0 1-.028 25.818c6.824.77 13.07-3.9 14.26-10.664S55.678 34.957 49 33.35z" opacity="1" data-original="#90ac00"></path><g fill="#000"><path fill-rule="nonzero" d="M4 56h32.221A13.992 13.992 0 1 0 50 32.59V17.148l9.1-9.109a3.013 3.013 0 0 0 0-4.286L56.247.894A3.064 3.064 0 0 0 54.093 0c-.8 0-1.568.322-2.129.893l-2.751 2.75A4.019 4.019 0 0 0 46 2H4a4 4 0 0 0-4 4v46a4 4 0 0 0 4 4zm54-10c0 6.627-5.373 12-12 12s-12-5.373-12-12 5.373-12 12-12c6.624.007 11.993 5.376 12 12zM34.817 25.967a.612.612 0 0 1-.63-.154.6.6 0 0 1-.155-.628l1.335-4 3.453 3.452zm5.852-2.313-4.323-4.323L46.935 8.747l1.452 1.453-8.426 8.426a1 1 0 1 0 1.414 1.414l8.425-8.427 1.452 1.452zM49.8 5.88l4.319 4.32-1.453 1.454-4.317-4.32zm3.582-3.58c.19-.192.448-.3.718-.3.275 0 .538.112.731.308l2.859 2.859c.198.193.31.457.31.733 0 .27-.108.528-.3.717h-.005l-2.159 2.16-4.318-4.31zM2 6a2 2 0 0 1 2-2h42a2.015 2.015 0 0 1 1.772 1.082l-13.55 13.543a1 1 0 0 0-.242.392l-1.846 5.538A2.6 2.6 0 0 0 32.08 26H22a1 1 0 0 0 0 2H34.63c.278 0 .554-.046.818-.133l5.535-1.845a1 1 0 0 0 .392-.242L48 19.149V32.16A13.855 13.855 0 0 0 32.59 42H22a1 1 0 0 0 0 2h10.16a13.655 13.655 0 0 0 2.367 10H4a2 2 0 0 1-2-2z" fill="#000000" opacity="1" data-original="#000000" class=""></path><path fill-rule="nonzero" d="M11 19a6 6 0 1 0 0-12 6 6 0 0 0 0 12zm0-10a4 4 0 1 1 0 8 4 4 0 0 1 0-8zM11 35a6 6 0 1 0 0-12 6 6 0 0 0 0 12zm0-10a4 4 0 1 1 0 8 4 4 0 0 1 0-8zM11 51a6 6 0 1 0 0-12 6 6 0 0 0 0 12zm0-10a4 4 0 1 1 0 8 4 4 0 0 1 0-8z" fill="#000000" opacity="1" data-original="#000000" class=""></path><path d="M40.707 48.293a1 1 0 0 0-1.414 1.414l2 2a1 1 0 0 0 1.414 0l10-10a1 1 0 0 0-1.414-1.414L42 49.586zM22 16h8a1 1 0 0 0 0-2h-8a1 1 0 0 0 0 2zM22 12h13a1 1 0 0 0 0-2H22a1 1 0 0 0 0 2zM22 48h6a1 1 0 0 0 0-2h-6a1 1 0 0 0 0 2zM22 32h8a1 1 0 0 0 0-2h-8a1 1 0 0 0 0 2z" fill="#000000" opacity="1" data-original="#000000" class=""></path></g></g></g></svg>
