<svg xmlns="http://www.w3.org/2000/svg" version="1.1" xmlns:xlink="http://www.w3.org/1999/xlink" width="512" height="512" x="0" y="0" viewBox="0 0 511.966 511.966" style="enable-background:new 0 0 512 512" xml:space="preserve" class=""><g><path fill="#90d8f9" d="M410.595 504.12H101.371c.481-9.595 1.029-19.202 1.644-28.797 1.89-29.547 25.062-53.301 54.553-56.018a1069.651 1069.651 0 0 1 196.84 0c29.48 2.718 52.663 26.471 54.542 56.018.616 9.595 1.164 19.201 1.645 28.797z" opacity="1" data-original="#90d8f9"></path><path fill="#75cef9" d="M222.671 415.29c-2.14.19-4.28.38-6.42.58-32.01 2.95-57.17 28.74-59.23 60.82-.58 9.14-1.11 18.29-1.58 27.43h-54.07c.48-9.59 1.03-19.2 1.64-28.8 1.89-29.54 25.06-53.3 54.56-56.01 21.7-2 43.4-3.34 65.1-4.02z" opacity="1" data-original="#75cef9"></path><path fill="#407093" d="M291.233 364.22v47.22c0 19.47-15.78 35.25-35.25 35.25s-35.25-15.78-35.25-35.25v-47.22z" opacity="1" data-original="#407093"></path><path fill="#365e7d" d="M265.963 445.25a34.95 34.95 0 0 1-9.98 1.44c-19.47 0-35.25-15.78-35.25-35.25v-47.22h19.96v47.22c0 16 10.66 29.51 25.27 33.81z" opacity="1" data-original="#365e7d"></path><path fill="#365e7d" d="M291.233 364.22v46c-23.5.4-47 .4-70.5 0v-46z" opacity="1" data-original="#365e7d"></path><g fill="#dd636e"><circle cx="172.954" cy="37.239" r="29.398" fill="#dd636e" opacity="1" data-original="#dd636e"></circle><circle cx="255.983" cy="37.239" r="29.398" fill="#dd636e" opacity="1" data-original="#dd636e"></circle><circle cx="339.012" cy="37.239" r="29.398" fill="#dd636e" opacity="1" data-original="#dd636e"></circle></g><g fill="#da4a54"><path d="M181.934 65.241c-2.83.91-5.85 1.4-8.98 1.4-16.24 0-29.4-13.16-29.4-29.4 0-16.23 13.16-29.4 29.4-29.4 3.13 0 6.15.49 8.98 1.4-11.85 3.79-20.42 14.9-20.42 28 0 13.11 8.57 24.21 20.42 28zM264.964 65.241c-2.83.91-5.85 1.4-8.98 1.4-16.24 0-29.4-13.16-29.4-29.4 0-16.23 13.16-29.4 29.4-29.4 3.13 0 6.15.49 8.98 1.4-11.85 3.79-20.42 14.9-20.42 28 0 13.11 8.57 24.21 20.42 28zM347.994 65.241c-2.83.91-5.85 1.4-8.98 1.4-16.24 0-29.4-13.16-29.4-29.4 0-16.23 13.16-29.4 29.4-29.4 3.13 0 6.15.49 8.98 1.4-11.85 3.79-20.42 14.9-20.42 28 0 13.11 8.57 24.21 20.42 28z" fill="#da4a54" opacity="1" data-original="#da4a54"></path></g><path fill="#407093" d="M468.059 124.724a8914.548 8914.548 0 0 0-424.153 0c-15.25.363-28.578 10.728-32.365 25.505-5.412 21.118-5.412 42.236 0 63.354 3.787 14.777 17.114 25.142 32.365 25.505a8914.548 8914.548 0 0 0 424.153 0c15.25-.363 28.578-10.728 32.365-25.505 5.412-21.118 5.412-42.236 0-63.354-3.787-14.777-17.114-25.142-32.365-25.505z" opacity="1" data-original="#407093"></path><path fill="#365e7d" d="M503.057 200.711a128.836 128.836 0 0 1-2.629 12.871c-3.79 14.783-17.116 25.15-32.365 25.503a8901.615 8901.615 0 0 1-424.16 0c-15.249-.353-28.575-10.72-32.365-25.503a129.119 129.119 0 0 1-2.629-12.871c6.43 3.255 16.228 5.292 26.925 5.394a22706.255 22706.255 0 0 0 440.297 0c10.698-.102 20.496-2.139 26.926-5.394z" opacity="1" data-original="#365e7d"></path><path fill="#90d8f9" d="M395.934 39.546a2079.25 2079.25 0 0 0-279.901 0c-33.401 2.251-60.12 28.606-62.939 61.963a1330.161 1330.161 0 0 0 0 224.37c2.818 33.358 29.538 59.713 62.939 61.963a2079.25 2079.25 0 0 0 279.901 0c33.401-2.251 60.12-28.606 62.939-61.963a1330.161 1330.161 0 0 0 0-224.37c-2.819-33.357-29.539-59.712-62.939-61.963z" opacity="1" data-original="#90d8f9"></path><path fill="#75cef9" d="M123.386 388.32c-2.458-.148-4.905-.319-7.352-.478-33.4-2.253-60.121-28.61-62.943-61.965a1330.79 1330.79 0 0 1 0-224.37c2.822-33.355 29.543-59.711 62.943-61.965 2.447-.159 4.894-.33 7.352-.478-22.396 10.379-38.408 32.194-40.593 58.05a1382.472 1382.472 0 0 0 0 233.167c2.185 25.856 18.197 47.66 40.593 58.039z" opacity="1" data-original="#75cef9"></path><path fill="#daeefa" d="M384.364 74.988a1938.984 1938.984 0 0 0-256.762 0c-17.019 1.128-30.815 14.25-32.708 31.201-6.484 58.047-6.484 116.094 0 174.14 1.893 16.95 15.69 30.072 32.708 31.201a1938.984 1938.984 0 0 0 256.762 0c17.018-1.128 30.815-14.25 32.708-31.2 6.484-58.047 6.484-116.094 0-174.14-1.893-16.952-15.689-30.074-32.708-31.202z" opacity="1" data-original="#daeefa"></path><path fill="#c0e3f8" d="M138.436 312.21c-3.607-.216-7.226-.444-10.834-.683-17.013-1.127-30.817-14.248-32.706-31.193-6.487-58.05-6.487-116.1 0-174.15 1.889-16.945 15.693-30.066 32.706-31.193 3.619-.239 7.238-.467 10.857-.683-10.299 5.565-17.639 15.909-19.005 28.166-6.76 60.519-6.76 121.05 0 181.57 1.366 12.257 8.695 22.59 18.982 28.166z" opacity="1" data-original="#c0e3f8"></path><g fill="#90d8f9"><circle cx="168.609" cy="134.892" r="31.032" fill="#90d8f9" opacity="1" data-original="#90d8f9"></circle><circle cx="343.357" cy="134.892" r="31.032" fill="#90d8f9" opacity="1" data-original="#90d8f9"></circle></g><g fill="#75cef9"><path d="M181.767 163.001a30.84 30.84 0 0 1-13.155 2.925c-17.139 0-31.034-13.895-31.034-31.034s13.895-31.034 31.034-31.034c4.7 0 9.161 1.047 13.155 2.925-10.561 4.95-17.878 15.67-17.878 28.109s7.317 23.159 17.878 28.109zM356.52 163.001a30.843 30.843 0 0 1-13.155 2.925c-17.139 0-31.034-13.895-31.034-31.034s13.895-31.034 31.034-31.034c4.7 0 9.161 1.047 13.155 2.925-10.572 4.939-17.89 15.67-17.89 28.109s7.318 23.17 17.89 28.109z" fill="#75cef9" opacity="1" data-original="#75cef9"></path></g><path d="M507.693 148.361c-4.59-17.888-20.813-30.692-39.458-31.137l-.62-.014c-.393-5.449-.809-10.894-1.268-16.332a75.428 75.428 0 0 0-22.212-47.358 75.207 75.207 0 0 0-47.697-21.457c-7.027-.474-14.064-.899-21.105-1.301C372.262 13.499 357.151.346 339.014.346c-17.061 0-31.556 11.635-35.699 27.555-3.901-.088-7.803-.179-11.705-.245C287.356 11.893 272.85.345 255.985.345s-31.371 11.547-35.625 27.311c-3.903.066-7.804.157-11.705.245C204.511 11.981 190.017.346 172.956.346c-18.137 0-33.248 13.153-36.319 30.416-7.041.402-14.078.828-21.105 1.301A75.207 75.207 0 0 0 67.835 53.52a75.428 75.428 0 0 0-22.212 47.358c-.459 5.438-.875 10.884-1.268 16.333l-.627.014c-18.639.445-34.861 13.249-39.452 31.141-5.696 22.259-5.696 44.825.001 67.075 4.386 17.107 19.405 29.557 37.017 31.011a1337.079 1337.079 0 0 0 4.33 80.059 75.428 75.428 0 0 0 22.212 47.358 75.207 75.207 0 0 0 47.697 21.457 2084.516 2084.516 0 0 0 97.704 4.258v8.533a1094.416 1094.416 0 0 0-56.349 3.716 67.821 67.821 0 0 0-42.317 20.187 67.596 67.596 0 0 0-19.039 42.825 2159.078 2159.078 0 0 0-1.646 28.901 7.496 7.496 0 0 0 7.491 7.875h309.221a7.502 7.502 0 0 0 7.491-7.875 2137.085 2137.085 0 0 0-1.646-28.895 66.861 66.861 0 0 0-2.839-15.533 7.499 7.499 0 0 0-9.38-4.952 7.5 7.5 0 0 0-4.952 9.38 51.885 51.885 0 0 1 2.2 12.052c.446 7.017.856 13.992 1.226 20.824h-293.42c.369-6.832.779-13.807 1.225-20.821 1.664-26.012 21.752-46.632 47.761-49.03a1079.262 1079.262 0 0 1 56.595-3.701c5.078 17.938 21.588 31.123 41.13 31.123s36.051-13.185 41.13-31.123c18.692.725 37.703 1.965 56.613 3.701a52.83 52.83 0 0 1 31.88 14.67 7.476 7.476 0 0 0 5.226 2.121 7.5 7.5 0 0 0 5.228-12.879c-11.055-10.743-25.602-17.438-40.961-18.85a1094.961 1094.961 0 0 0-56.365-3.715v-8.533a2083.156 2083.156 0 0 0 97.704-4.258 75.207 75.207 0 0 0 47.697-21.457 75.428 75.428 0 0 0 22.212-47.358 1337.833 1337.833 0 0 0 4.33-80.058c17.604-1.448 32.63-13.901 37.018-31.014 5.689-22.249 5.689-44.815-.008-67.079zM339.013 15.346c9.509 0 17.618 6.092 20.637 14.574a2085.945 2085.945 0 0 0-40.621-1.604c3.423-7.663 11.111-12.97 19.984-12.97zm-83.03 0c8.48 0 15.948 4.919 19.569 12.105a2109.832 2109.832 0 0 0-39.137 0c3.62-7.186 11.088-12.105 19.568-12.105zm-83.03 0c8.873 0 16.561 5.307 19.984 12.971-13.555.407-27.099.934-40.621 1.604 3.018-8.484 11.128-14.575 20.637-14.575zM18.803 211.718c-5.064-19.779-5.064-39.843-.001-59.629 2.869-11.182 12.91-19.231 24.552-19.822a1345.495 1345.495 0 0 0-2.35 99.056c-10.626-1.482-19.529-9.182-22.201-19.605zm264.93 199.722c0 15.302-12.448 27.75-27.75 27.75s-27.75-12.448-27.75-27.75v-11.605c9.249.122 18.499.201 27.75.201s18.501-.079 27.75-.201zm167.666-86.192a60.42 60.42 0 0 1-17.791 37.935 60.206 60.206 0 0 1-38.179 17.177c-92.531 6.235-186.361 6.235-278.893 0a60.208 60.208 0 0 1-38.179-17.177 60.417 60.417 0 0 1-17.791-37.935c-6.255-74.021-6.255-149.085 0-223.107a60.42 60.42 0 0 1 17.791-37.935 60.203 60.203 0 0 1 38.179-17.177c46.266-3.117 92.855-4.676 139.446-4.676s93.181 1.559 139.446 4.676a60.206 60.206 0 0 1 38.179 17.177 60.417 60.417 0 0 1 17.791 37.935c6.256 74.022 6.256 149.086.001 223.107zm41.765-113.532c-2.674 10.429-11.583 18.131-22.203 19.609.433-33.047-.351-66.124-2.35-99.057 11.647.594 21.684 8.642 24.552 19.817 5.064 19.79 5.064 39.854.001 59.631z" fill="#000000" opacity="1" data-original="#000000"></path><path d="M384.86 67.507c-85.518-5.675-172.236-5.675-257.754 0-20.692 1.373-37.375 17.293-39.667 37.851-5.32 47.638-6.306 95.98-2.928 143.682.293 4.132 3.883 7.251 8.011 6.951a7.5 7.5 0 0 0 6.952-8.011c-3.314-46.797-2.348-94.222 2.873-140.959 1.486-13.332 12.316-23.656 25.753-24.547 84.855-5.631 170.91-5.631 255.766 0 13.437.892 24.267 11.216 25.753 24.548a778.425 778.425 0 0 1 0 172.477c-1.486 13.332-12.316 23.655-25.752 24.547-84.856 5.621-170.909 5.622-255.767 0-13.437-.892-24.267-11.216-25.749-24.511l-.219-1.979a7.496 7.496 0 0 0-8.243-6.675 7.5 7.5 0 0 0-6.675 8.243l.225 2.037c2.292 20.559 18.975 36.479 39.668 37.853a1951.087 1951.087 0 0 0 128.875 4.249c43.06 0 86.119-1.416 128.878-4.249 20.692-1.374 37.375-17.293 39.667-37.851a793.582 793.582 0 0 0 0-175.803c-2.292-20.56-18.975-36.48-39.667-37.853z" fill="#000000" opacity="1" data-original="#000000"></path><path d="M207.141 134.892c0-21.247-17.285-38.532-38.532-38.532-21.246 0-38.531 17.285-38.531 38.532s17.285 38.532 38.531 38.532c21.247 0 38.532-17.285 38.532-38.532zm-62.063 0c0-12.975 10.556-23.532 23.531-23.532s23.532 10.556 23.532 23.532-10.557 23.532-23.532 23.532-23.531-10.556-23.531-23.532zM343.357 96.361c-21.247 0-38.532 17.285-38.532 38.532s17.285 38.532 38.532 38.532c21.246 0 38.531-17.285 38.531-38.532s-17.285-38.532-38.531-38.532zm0 62.063c-12.976 0-23.532-10.556-23.532-23.532s10.557-23.532 23.532-23.532 23.531 10.556 23.531 23.532-10.555 23.532-23.531 23.532zM299.813 181.426c0-4.142-3.357-7.5-7.5-7.5s-7.5 3.358-7.5 7.5c0 15.897-12.934 28.83-28.83 28.83s-28.83-12.933-28.83-28.83c0-4.142-3.357-7.5-7.5-7.5s-7.5 3.358-7.5 7.5c0 24.168 19.662 43.83 43.83 43.83s43.83-19.662 43.83-43.83zM389.486 189.469h-30.653c-4.143 0-7.5 3.358-7.5 7.5s3.357 7.5 7.5 7.5h30.653c4.143 0 7.5-3.358 7.5-7.5s-3.357-7.5-7.5-7.5zM389.486 214.825h-30.653c-4.143 0-7.5 3.358-7.5 7.5s3.357 7.5 7.5 7.5h30.653c4.143 0 7.5-3.358 7.5-7.5s-3.357-7.5-7.5-7.5zM114.98 196.969a7.5 7.5 0 0 0 7.5 7.5h30.653c4.143 0 7.5-3.358 7.5-7.5s-3.357-7.5-7.5-7.5H122.48a7.5 7.5 0 0 0-7.5 7.5zM122.48 229.825h30.653c4.143 0 7.5-3.358 7.5-7.5s-3.357-7.5-7.5-7.5H122.48a7.5 7.5 0 0 0 0 15zM161.86 442.033a6.922 6.922 0 0 0-6.424-4.304h-.005a6.922 6.922 0 0 0-6.423 4.313l-.055.138-15.658 41.112a6 6 0 0 0 11.215 4.271l2.428-6.375h16.875l2.399 6.357a6 6 0 1 0 11.226-4.237l-15.516-41.114-.062-.161zm-10.351 27.157 3.906-10.256 3.87 10.256zM187.163 443.729v41.699a6 6 0 0 0 12 0v-41.699a6 6 0 0 0-12 0z" fill="#000000" opacity="1" data-original="#000000"></path></g></svg>
